<svg class="background-rays" viewBox="0 0 300 300">
        <defs>
            <linearGradient id="rayGradientRed" x1="0%" y1="0%" x2="0%" y2="100%">
                <stop offset="0%" style="stop-color: #FF0000; stop-opacity: 0.8" />
                <stop offset="100%" style="stop-color: #FF0000; stop-opacity: 0" />
            </linearGradient>
            <linearGradient id="rayGradientYellow" x1="0%" y1="0%" x2="0%" y2="100%">
                <stop offset="0%" style="stop-color: #FFFF00; stop-opacity: 0.8" />
                <stop offset="100%" style="stop-color: #FFFF00; stop-opacity: 0" />
            </linearGradient>
            <linearGradient id="rayGradientBlue" x1="0%" y1="0%" x2="0%" y2="100%">
                <stop offset="0%" style="stop-color: #0000FF; stop-opacity: 0.8" />
                <stop offset="100%" style="stop-color: #0000FF; stop-opacity: 0" />
            </linearGradient>
            <linearGradient id="rayGradientPurple" x1="0%" y1="0%" x2="0%" y2="100%">
                <stop offset="0%" style="stop-color: #9400D3; stop-opacity: 0.8" />
                <stop offset="100%" style="stop-color: #9400D3; stop-opacity: 0" />
            </linearGradient>
        </defs>
        <g transform="translate(150, 150)">
            <!-- 12 sinar radial dengan warna pelangi terbatas dan efek memudar -->
            <path d="M 0 0 L 0 -150" stroke="url(#rayGradientRed)" stroke-width="3" /> <!-- Dipertebal -->
            <path d="M 0 0 L 0 -150" stroke="url(#rayGradientYellow)" stroke-width="3" transform="rotate(30)" />
            <path d="M 0 0 L 0 -150" stroke="url(#rayGradientBlue)" stroke-width="3" transform="rotate(60)" />
            <path d="M 0 0 L 0 -150" stroke="url(#rayGradientPurple)" stroke-width="3" transform="rotate(90)" />
            <path d="M 0 0 L 0 -150" stroke="url(#rayGradientRed)" stroke-width="3" transform="rotate(120)" />
            <path d="M 0 0 L 0 -150" stroke="url(#rayGradientYellow)" stroke-width="3" transform="rotate(150)" />
            <path d="M 0 0 L 0 -150" stroke="url(#rayGradientBlue)" stroke-width="3" transform="rotate(180)" />
            <path d="M 0 0 L 0 -150" stroke="url(#rayGradientPurple)" stroke-width="3" transform="rotate(210)" />
            <path d="M 0 0 L 0 -150" stroke="url(#rayGradientRed)" stroke-width="3" transform="rotate(240)" />
            <path d="M 0 0 L 0 -150" stroke="url(#rayGradientYellow)" stroke-width="3" transform="rotate(270)" />
            <path d="M 0 0 L 0 -150" stroke="url(#rayGradientBlue)" stroke-width="3" transform="rotate(300)" />
            <path d="M 0 0 L 0 -150" stroke="url(#rayGradientPurple)" stroke-width="3" transform="rotate(330)" />
        </g>
    </svg>
