<svg width="400px" height="400px" xmlns="http://www.w3.org/2000/svg">
  <!-- Latar belakang lingkaran berwarna -->
  <g>
    <circle cx="150" cy="150" r="120" fill="#219EBC" opacity="0.7"/>
    <circle cx="250" cy="150" r="120" fill="#F4A261" opacity="0.7"/>
    <circle cx="150" cy="250" r="120" fill="#9B59B6" opacity="0.7"/>
    <circle cx="250" cy="250" r="120" fill="#2A9D8F" opacity="0.7"/>
  </g>

  <!-- Gunung sederhana di tengah -->
  <path d="M 100 300 L 200 150 L 300 300 Z" fill="#264653" opacity="0.9"/>

  <!-- Elemen kotak dengan transformasi matrix -->
  <g>
    <!-- Kotak 1 -->
    <g transform="matrix(1, 0, 0, 1, 50, 50)">
      <rect x="0" y="0" width="50" height="50" fill="#000000"/>
      <circle cx="15" cy="15" r="10" fill="#219EBC"/>
      <circle cx="35" cy="15" r="10" fill="#F4A261"/>
      <circle cx="15" cy="35" r="10" fill="#9B59B6"/>
      <circle cx="35" cy="35" r="10" fill="#2A9D8F"/>
    </g>

    <!-- Kotak 2 -->
    <g transform="matrix(0.9, 0.1, -0.1, 0.9, 250, 50)">
      <rect x="0" y="0" width="50" height="50" fill="#000000"/>
      <circle cx="15" cy="15" r="10" fill="#219EBC"/>
      <circle cx="35" cy="15" r="10" fill="#F4A261"/>
      <circle cx="15" cy="35" r="10" fill="#9B59B6"/>
      <circle cx="35" cy="35" r="10" fill="#2A9D8F"/>
    </g>

    <!-- Kotak 3 -->
    <g transform="matrix(0.8, 0.2, -0.2, 0.8, 50, 250)">
      <rect x="0" y="0" width="50" height="50" fill="#000000"/>
      <circle cx="15" cy="15" r="10" fill="#219EBC"/>
      <circle cx="35" cy="15" r="10" fill="#F4A261"/>
      <circle cx="15" cy="35" r="10" fill="#9B59B6"/>
      <circle cx="35" cy="35" r="10" fill="#2A9D8F"/>
    </g>

    <!-- Kotak 4 -->
    <g transform="matrix(0.7, 0.3, -0.3, 0.7, 250, 250)">
      <rect x="0" y="0" width="50" height="50" fill="#000000"/>
      <circle cx="15" cy="15" r="10" fill="#219EBC"/>
      <circle cx="35" cy="15" r="10" fill="#F4A261"/>
      <circle cx="15" cy="35" r="10" fill="#9B59B6"/>
      <circle cx="35" cy="35" r="10" fill="#2A9D8F"/>
    </g>
  </g>

  <!-- Teks "Puncak Lembah" -->
  <text x="200" y="380" font-family="Arial" font-size="24" fill="#264653" text-anchor="middle">Puncak Lembah</text>
</svg>
