<svg class="mountain-svg" viewBox="0 0 300 300">
                <g transform="translate(150, 60)">
                    <circle class="sun" cx="0" cy="0" r="15" />
                    <line class="sun-rays" x1="0" y1="-30" x2="0" y2="-25" />
                    <line class="sun-rays" x1="0" y1="25" x2="0" y2="30" />
                    <line class="sun-rays" x1="-30" y1="0" x2="-25" y2="0" />
                    <line class="sun-rays" x1="25" y1="0" x2="30" y2="0" />
                    <line class="sun-rays" x1="-21" y1="-21" x2="-15" y2="-18" transform="rotate(45)" />
                    <line class="sun-rays" x1="21" y1="21" x2="15" y2="15" transform="rotate(45)" />
                    <line class="sun-rays" x1="-21" y1="21" x2="-15" y2="15" transform="rotate(-45)" />
                    <line class="sun-rays" x1="21" y1="-21" x2="15" y2="-15" transform="rotate(-45)" />
                </g>
                <path class="mountain-peaks" d="M 0 300 C 50 180 90 160 130 120 C 150 80 170 100 180 130 C 210 160 250 180 300 300 C 250 200 200 240 150 210 C 100 180 50 210 0 300 Z" />
                <path class="market-line-green" d="M 50 260 Q 100 230, 150 260 T 250 240" />
                <path class="market-line-red" d="M 50 280 Q 100 250, 150 280 T 250 260" />
            </svg>
